<?xml version="1.0" standalone="no"?>
<!DOCTYPE svg PUBLIC "-//W3C//DTD SVG 20010904//EN" "http://www.w3.org/TR/2001/REC-SVG-20010904/DTD/svg10.dtd">
<svg version="1.0" xmlns="http://www.w3.org/2000/svg" width="700.000000pt" height="700.000000pt" viewBox="0 0 700.000000 700.000000" preserveAspectRatio="xMidYMid meet">
<metadata>
Created by potrace 1.11, written by Peter Selinger 2001-2013
</metadata>
<g transform="translate(0.000000,700.000000) scale(0.100000,-0.100000)" fill="#000000" stroke="none">
<path d="M3139 5626 c-2 -2 -71 -7 -154 -10 -82 -4 -166 -9 -185 -11 -19 -2
-75 -6 -125 -10 -49 -4 -103 -9 -120 -11 -16 -2 -52 -6 -80 -9 -62 -7 -268
-33 -315 -40 -43 -7 -169 -26 -190 -30 -8 -1 -35 -6 -60 -10 -53 -9 -31 -4
-245 -49 -93 -19 -219 -47 -280 -61 -60 -15 -117 -28 -125 -30 -8 -1 -35 -8
-60 -15 -25 -7 -52 -14 -61 -15 -85 -17 -525 -155 -728 -229 -361 -132 -378
-142 -366 -202 3 -18 137 -259 296 -536 160 -277 299 -516 308 -533 9 -16 24
-41 32 -55 18 -28 238 -409 277 -480 14 -25 42 -74 64 -109 21 -34 38 -64 38
-66 0 -2 63 -112 140 -244 77 -132 140 -242 140 -245 0 -2 -50 10 -112 26
-110 30 -113 30 -145 13 -43 -24 -55 -74 -26 -113 17 -23 47 -34 207 -78 102
-27 190 -54 196 -60 12 -12 320 -545 320 -554 0 -3 13 -19 30 -35 37 -35 64
-35 155 3 72 29 239 86 356 120 l66 19 61 -56 61 -56 -82 -57 c-45 -32 -107
-70 -137 -85 -108 -55 -141 -169 -77 -264 112 -167 372 -39 315 155 -7 22 -12
44 -13 47 0 7 62 55 133 103 96 66 97 105 5 193 -36 35 -64 65 -62 67 4 4 143
32 197 40 18 2 47 0 65 -5 47 -14 457 -124 513 -139 47 -11 89 10 104 54 21
64 -15 97 -138 126 -29 7 -51 14 -48 17 12 13 471 4 606 -12 25 -3 70 -7 100
-10 30 -3 66 -7 80 -9 14 -2 48 -7 75 -11 28 -4 95 -15 149 -26 108 -21 92
-11 239 -149 l38 -36 -90 -62 c-50 -35 -105 -68 -123 -74 -45 -15 -77 -45 -99
-93 -51 -109 16 -232 137 -251 131 -20 241 119 190 241 -9 21 -13 41 -8 44 78
54 171 123 186 140 25 28 23 77 -5 107 -12 13 -20 24 -18 24 5 0 251 -86 338
-118 54 -20 75 -20 101 1 18 14 70 93 70 106 0 5 6 14 14 21 12 9 31 7 93 -10
102 -29 132 -28 161 5 26 30 28 55 8 94 -12 22 -29 32 -90 50 -42 12 -76 24
-76 26 0 3 22 42 49 87 27 46 159 274 294 508 134 234 270 470 302 525 457
792 586 1015 601 1042 11 17 37 62 58 100 22 37 94 163 162 279 67 116 125
221 129 233 4 13 1 36 -5 52 -14 33 -35 44 -195 103 -55 21 -111 42 -125 48
-41 17 -428 145 -525 174 -303 88 -680 179 -960 229 -126 23 -294 49 -391 61
-23 3 -52 7 -64 9 -12 2 -51 7 -88 11 -36 3 -73 7 -82 9 -8 2 -51 6 -95 10
-44 4 -93 9 -110 11 -16 1 -73 6 -125 9 -52 4 -113 9 -135 11 -51 6 -911 15
-916 10z m791 -170 c91 -4 181 -9 200 -11 19 -2 78 -6 130 -10 52 -3 106 -8
120 -10 14 -2 54 -6 90 -10 36 -4 76 -8 90 -10 14 -2 57 -7 95 -11 39 -4 72
-8 75 -9 3 -1 30 -5 60 -9 55 -7 266 -42 306 -50 12 -2 37 -7 55 -10 71 -11
339 -68 459 -98 375 -92 761 -212 1101 -343 l46 -18 -142 -246 c-78 -135 -168
-291 -200 -346 -32 -55 -67 -115 -77 -134 -11 -19 -121 -210 -245 -425 -124
-215 -234 -404 -243 -421 -10 -16 -41 -70 -70 -120 -29 -49 -62 -108 -75 -130
-58 -104 -508 -880 -511 -884 -5 -6 -64 9 -509 129 -209 56 -402 108 -430 115
-27 8 -111 30 -185 50 -298 80 -577 154 -600 160 -8 2 -75 20 -147 39 -143 39
-171 39 -202 0 -23 -29 -20 -80 6 -105 11 -10 150 -52 338 -103 478 -127 473
-126 569 -151 49 -13 96 -31 105 -41 15 -15 14 -16 -19 -10 -19 4 -60 9 -90
12 -30 2 -67 7 -83 9 -118 19 -555 26 -761 12 -103 -7 -127 -9 -216 -22 -159
-22 -86 -36 -720 135 -102 28 -295 79 -428 115 -134 35 -249 68 -256 74 -6 5
-23 32 -36 60 -14 28 -28 51 -32 51 -5 0 -8 4 -8 9 0 5 -41 80 -92 168 -50 87
-102 178 -116 203 -14 25 -35 61 -47 80 -12 19 -33 55 -47 80 -14 25 -49 86
-78 135 -29 50 -62 108 -75 130 -12 22 -88 153 -167 290 -80 138 -246 426
-370 640 -123 215 -231 400 -239 412 -9 15 -10 26 -4 32 20 19 616 224 740
254 11 3 60 16 109 31 48 14 98 28 110 31 11 2 75 18 141 35 66 17 129 32 140
34 11 2 74 15 140 29 66 14 131 28 145 30 14 3 43 8 65 12 22 4 49 9 60 11 91
17 214 36 340 54 155 21 182 25 300 36 39 3 78 8 87 9 17 4 133 13 238 20 30
2 127 7 215 10 88 4 161 8 162 9 5 4 539 -2 683 -8z m-2130 -3125 c41 -12 117
-33 169 -47 91 -24 98 -28 183 -105 73 -65 85 -81 71 -86 -10 -4 -79 -28 -153
-54 -74 -25 -142 -49 -150 -52 -12 -6 -41 37 -123 177 -59 102 -107 188 -107
191 0 4 8 4 18 1 9 -3 51 -14 92 -25z m650 -177 c0 -2 -7 -4 -15 -4 -8 0 -15
4 -15 10 0 5 7 7 15 4 8 -4 15 -8 15 -10z m2648 -159 c14 -14 -9 -13 -51 3
-64 25 -67 32 -6 16 29 -8 54 -16 57 -19z m-2728 -446 c0 -5 -7 -9 -15 -9 -15
0 -20 12 -9 23 8 8 24 -1 24 -14z m2060 -5 c0 -14 -3 -14 -15 -4 -8 7 -15 14
-15 16 0 2 7 4 15 4 8 0 15 -7 15 -16z"/>
</g>
</svg>
