<svg xmlns="http://www.w3.org/2000/svg">

  <symbol id="icon-logo" viewBox="0 0 1280 640">
    <g transform="translate(0.000000,640.000000) scale(0.100000,-0.100000)" fill="#fefefe" stroke="none">
      <path d="M4830 5104 c-8 -1 -62 -10 -118 -19 -118 -19 -310 -64 -425 -100
      -456 -144 -828 -360 -1166 -678 -384 -362 -781 -623 -1376 -908 -391 -188
      -959 -401 -1433 -539 -61 -18 -110 -35 -108 -38 8 -8 402 109 671 200 788 266
      1438 579 1908 919 124 91 161 121 390 323 211 187 318 271 467 371 325 217
      700 363 1170 454 52 10 82 19 65 19 -16 0 -37 -2 -45 -4z"/>
      <path d="M6020 5041 c-58 -4 -115 -13 -127 -19 -45 -25 -37 -34 152 -182 50
      -39 175 -148 279 -243 217 -198 243 -217 340 -249 65 -21 88 -23 286 -23 118
      0 393 6 610 14 430 15 1361 10 1615 -8 77 -6 172 -13 210 -15 l70 -6 -95 46
      c-310 151 -1261 509 -1495 564 -127 30 -552 82 -910 110 -163 13 -794 21 -935
      11z"/>
      <path d="M5005 4930 c-200 -23 -450 -85 -680 -169 -128 -46 -175 -72 -175 -93
      0 -4 38 -48 83 -98 95 -100 181 -222 252 -355 27 -49 49 -91 50 -93 2 -2 203
      5 1393 52 183 7 334 15 337 17 5 6 -82 145 -142 226 -196 263 -457 440 -736
      497 -96 20 -278 27 -382 16z"/>
      <path d="M3815 4532 c-281 -144 -429 -265 -564 -460 -13 -18 -22 -35 -20 -37
      2 -2 29 3 59 11 141 37 507 64 861 64 248 0 248 0 205 88 -51 103 -159 256
      -237 335 -101 102 -104 102 -304 -1z"/>
      <path d="M8470 4250 c-85 -4 -353 -13 -595 -19 -242 -7 -447 -14 -455 -15 -8
      -2 44 -4 115 -5 522 -5 1279 -82 1930 -196 110 -19 270 -47 355 -61 189 -30
      243 -46 340 -94 287 -144 582 -409 803 -720 23 -33 -158 332 -244 492 -70 129
      -82 175 -54 198 32 26 457 60 763 60 165 0 387 -41 588 -110 48 -16 90 -28 92
      -25 8 8 -225 114 -328 148 -394 132 -1086 240 -2125 332 -207 19 -937 28
      -1185 15z"/>
      <path d="M11205 3819 c-311 -13 -385 -22 -407 -49 -30 -37 -22 -82 35 -193 69
      -132 180 -307 236 -369 24 -27 67 -61 95 -75 49 -26 59 -27 296 -34 271 -9
      656 -27 767 -36 67 -5 73 -4 97 20 20 20 26 36 26 70 0 76 -99 390 -145 459
      -53 80 -174 129 -458 188 -162 33 -183 34 -542 19z"/>
      <path d="M9114 3806 c-43 -19 -101 -81 -107 -115 -18 -91 103 -260 234 -326
      155 -79 352 -66 409 28 74 121 -60 296 -302 395 -76 31 -188 39 -234 18z"/>
      <path d="M9435 3782 c183 -97 284 -203 285 -296 0 -43 -36 -112 -78 -146 -42
      -35 -37 -38 17 -10 75 38 112 108 96 182 -27 125 -141 230 -314 289 -82 28
      -84 23 -6 -19z"/>
      <path d="M9849 3806 c-155 -88 -14 -406 230 -521 252 -120 421 -19 340 202
      -18 47 -39 75 -113 149 -74 74 -108 99 -179 134 -78 39 -97 44 -170 47 -59 3
      -89 -1 -108 -11z"/>
      <path d="M10230 3743 c171 -137 257 -264 248 -365 -3 -29 -9 -62 -13 -73 -7
      -18 -5 -17 18 4 15 13 34 43 43 66 13 35 14 49 4 86 -25 94 -128 194 -295 288
      l-40 22 35 -28z"/>
      <path d="M12274 3585 c-12 -30 8 -86 86 -241 100 -201 159 -267 176 -198 14
      56 -61 248 -140 359 -60 83 -109 115 -122 80z"/>
      <path d="M7515 3414 c164 -25 293 -109 386 -251 142 -218 192 -596 129 -983
      -46 -279 -129 -471 -260 -600 -75 -74 -159 -121 -270 -149 l-75 -20 91 0 c436
      -3 711 363 731 974 8 253 -28 436 -126 640 -82 170 -187 283 -326 350 -90 43
      -153 55 -273 54 l-97 -1 90 -14z"/>
      <path d="M3290 3059 c0 -15 110 -331 128 -365 25 -49 88 -107 139 -130 42 -18
      154 -21 1638 -43 402 -6 847 -13 990 -15 l260 -5 -300 19 c-165 11 -534 33
      -820 50 -1375 79 -1543 90 -1611 105 -139 30 -251 122 -366 300 -32 49 -58 87
      -58 84z"/>
      <path d="M3690 2360 c-140 -20 -264 -39 -275 -42 -24 -5 425 -16 1045 -24 427
      -6 1527 10 1695 25 58 5 -10 9 -245 14 -398 8 -1439 43 -1865 61 -80 3 -151
      -3 -355 -34z"/>
      <path d="M8525 2330 c-6 -9 14 -481 21 -489 5 -6 241 -29 504 -50 723 -57
      1400 -73 2070 -51 1026 34 1433 83 1597 193 88 59 103 135 48 254 l-25 55 -30
      -25 c-159 -134 -1072 -215 -2005 -177 -431 17 -858 40 -939 50 -134 17 -232
      73 -302 176 l-39 56 -52 -7 c-53 -6 -751 11 -810 20 -17 3 -34 1 -38 -5z"/>
      <path d="M8302 2114 c-35 -240 -156 -465 -321 -597 -70 -55 -237 -147 -268
      -147 -7 0 -13 -5 -13 -12 0 -8 53 -9 208 -5 243 8 378 21 429 42 52 22 293
      238 293 262 0 6 -55 13 -122 17 -182 10 -168 -10 -174 246 -2 118 -8 230 -12
      249 -7 30 -9 24 -20 -55z"/>
      <path d="M2265 2065 c216 -40 2020 -317 2085 -321 41 -2 471 -5 955 -7 787 -3
      859 -2 680 9 -811 51 -1854 142 -3225 279 -245 25 -474 47 -510 50 l-65 4 80
      -14z"/>
      <path d="M11750 1638 c-63 -4 -377 -9 -697 -11 -321 -1 -583 -5 -583 -8 0 -8
      95 -90 163 -141 67 -50 207 -121 287 -146 161 -49 342 -49 520 -1 92 25 256
      102 341 160 67 45 169 136 169 150 0 10 -37 10 -200 -3z"/>
    </g>
  </symbol>

  <symbol id="icon-guarantee" viewBox="0 0 1024 1024"> 
    <path d="M556.022691 902.358109c-18.134109 9.951418-31.315782 14.382545-42.710109 14.382546-11.478109 
    0-24.278109-4.384582-42.710109-14.717673-307.628218-171.985455-306.613527-266.202764-302.834037-616.727273 0.381673-34.853236 
    0.781964-72.043055 0.902982-111.885964a2498.327273 2498.327273 0 0 1 151.766109-40.112872c58.051491-13.498182 122.619345-22.2208 
    191.878982-25.963055 131.760873 14.792145 232.829673 34.304 342.304582 66.2528 0.195491 45.028073 0.781964 86.621091 1.284654 
    125.151418 4.756945 352.321164 5.920582 436.047127-299.883054 603.620073m359.861527-604.457891c-0.586473-44.730182-1.256727-93.519127-1.359127-147.102254a30.263855 
    30.263855 0 0 0-21.4016-28.997819C770.904436 84.6848 661.792582 62.929455 516.468364 46.722327a32.116364 32.116364 0 0 
    0-4.822109-0.139636c-73.672145 3.844655-142.522182 13.116509-204.660364 27.5456-62.519855 14.531491-122.135273 30.598982-177.124073 
    47.737018a30.3104 30.3104 0 0 0-21.150254 28.997818c0 48.2304-0.502691 92.625455-0.9216 133.771637-3.807418 350.021818-5.2224 
    480.991418 333.786763 670.543127 27.9552 15.629964 49.412655 22.285964 71.735855 22.285964 21.9136 0 43.910982-6.702545 
    71.289018-21.690182 337.696582-185.111273 336.225745-294.7072 331.282618-657.873455m-192.269963 13.526109L453.129309 586.193455 
    320.344436 451.341964a39.721891 39.721891 0 0 0-56.580654-0.1024 40.848291 40.848291 0 0 0-0.093091 57.250909l161.121745 
    163.607272c7.521745 7.614836 17.696582 11.906327 28.336873 11.906328s20.843055-4.291491 28.336873-11.924946l298.821818-303.550836a40.792436 
    40.792436 0 0 0-0.121018-57.222982 39.619491 39.619491 0 0 0-56.552727 0.121018" />
  </symbol>

  <symbol id="icon-exp" viewBox="0 0 1024 1024">
    <path d="M896.576 220.256l-159.168 0 0-53.024c0-58.592-47.552-106.112-106.144-106.112l-265.184 0c-58.592 0-106.08 47.52-106.08 
    106.112l0 53.024-132.576 0c-58.592 0-106.08 47.52-106.08 106.144l0 530.4c0 58.592 47.52 106.08 106.08 106.08l769.152 0c58.592 0 
    106.112-47.52 106.112-106.08l0-530.4c-0.032-58.592-47.52-106.144-106.112-106.144l0 0zM339.616 193.728c0-29.28 23.776-53.024 
    53.024-53.024l212.192 0c29.248 0 53.024 23.776 53.024 53.024l0 26.496-318.24 0 0-26.496zM923.104 830.304c0 29.248-23.776 
    53.024-53.024 53.024l-716.128 0c-29.28 0-53.024-23.776-53.024-53.024l0-238.752 344.8 0 0 23.616c0 30.912 29.696 55.968 66.304 
    55.968s66.272-25.056 66.272-55.968l0-23.616 344.8 0 0 238.752 0.032 0zM923.104 538.496l-344.832 0 
    0-23.616c0-30.88-29.728-55.936-66.272-55.936s-66.304 25.056-66.304 55.936l0 23.616-344.8 0 0-185.632c0-29.28 23.776-53.024 
    53.024-53.024l716.096 0c29.28 0 53.024 23.744 53.024 53.024l0 185.632 0.096 0z" />
  </symbol>

  <symbol id="icon-sale" viewBox="0 0 1024 1024">
    <path d="M442.666667 1009.066667l-277.333333 0c-36.266667 0-66.133333-29.866667-66.133333-64L99.2 599.466667C99.2 586.666667 
    109.866667 576 122.666667 576l320 0c12.8 0 23.466667 10.666667 23.466667 23.466667l0 386.133333C466.133333 998.4 455.466667 
    1009.066667 442.666667 1009.066667L442.666667 1009.066667zM144 620.8l0 324.266667c0 10.666667 8.533333 19.2 19.2 19.2l258.133333 0 
    0-341.333333L144 620.8 144 620.8zM144 620.8M858.666667 1009.066667l-277.333333 
    0c-12.8 0-23.466667-10.666667-23.466667-23.466667L557.866667 599.466667c0-12.8 10.666667-23.466667 
    23.466667-23.466667l320 0c12.8 0 23.466667 10.666667 23.466667 23.466667l0 343.466667C924.8 979.2 894.933333 1009.066667 858.666667 
    1009.066667L858.666667 1009.066667zM602.666667 964.266667l258.133333 0c10.666667 0 19.2-8.533333 19.2-19.2L880 620.8 602.666667 
    620.8 602.666667 964.266667 602.666667 964.266667zM602.666667 964.266667M442.666667 524.8 109.866667 524.8c-36.266667 
    0-66.133333-29.866667-66.133333-66.133333l0-123.733333c0-36.266667 29.866667-66.133333 66.133333-66.133333l332.8 0c12.8 0 23.466667 
    10.666667 23.466667 23.466667l0 209.066667C466.133333 514.133333 455.466667 524.8 442.666667 524.8L442.666667 524.8zM105.6 
    313.6c-10.666667 0-19.2 8.533333-19.2 19.2l0 128c0 10.666667 8.533333 19.2 19.2 19.2l315.733333 0 0-166.4L105.6 313.6 105.6 
    313.6zM105.6 313.6M916.266667 524.8 581.333333 524.8c-12.8 0-23.466667-10.666667-23.466667-23.466667l0-209.066667c0-12.8 
    10.666667-23.466667 23.466667-23.466667l332.8 0c36.266667 0 66.133333 29.866667 66.133333 66.133333l0 123.733333C982.4 494.933333 
    952.533333 524.8 916.266667 524.8L916.266667 524.8zM602.666667 482.133333l315.733333 0c10.666667 0 19.2-8.533333 
    19.2-19.2l0-128c0-10.666667-8.533333-19.2-19.2-19.2L602.666667 315.733333 602.666667 482.133333 602.666667 482.133333zM602.666667 
    482.133333M338.133333 224c-21.333333 0-40.533333-2.133333-57.6-8.533333-85.333333-27.733333-100.266667-85.333333-87.466667-125.866667 
    17.066667-51.2 74.666667-72.533333 145.066667-49.066667 70.4 23.466667 138.666667 121.6 140.8 125.866667 4.266667 6.4 4.266667 
    12.8 2.133333 21.333333-2.133333 6.4-8.533333 12.8-14.933333 14.933333C464 204.8 400 224 338.133333 224L338.133333 224zM278.4 
    76.8c-17.066667 0-38.4 8.533333-44.8 27.733333-8.533333 29.866667 8.533333 55.466667 57.6 72.533333C325.333333 187.733333 391.466667 
    179.2 429.866667 170.666667c-27.733333-32-68.266667-74.666667-106.666667-87.466667C306.133333 76.8 291.2 76.8 278.4 76.8L278.4 
    76.8zM278.4 76.8M677.333333 224 677.333333 224c-61.866667 0-125.866667-21.333333-130.133333-21.333333-6.4-2.133333-12.8-8.533333-14.933333-14.933333-2.133333-6.4-2.133333-14.933333 
    2.133333-21.333333 2.133333-4.266667 70.4-102.4 140.8-125.866667 70.4-23.466667 128-2.133333 145.066667 49.066667 8.533333 25.6 
    4.266667 51.2-10.666667 74.666667-14.933333 23.466667-40.533333 40.533333-76.8 51.2C717.866667 221.866667 698.666667 224 677.333333 
    224L677.333333 224zM589.866667 170.666667c23.466667 6.4 57.6 10.666667 87.466667 10.666667l0 0c17.066667 0 34.133333-2.133333 44.8-6.4 
    25.6-8.533333 53.333333-27.733333 57.6-40.533333 4.266667-8.533333 6.4-17.066667 2.133333-29.866667-8.533333-23.466667-27.733333-27.733333-44.8-27.733333-12.8 0-27.733333
    2.133333-44.8 8.533333C656 96 615.466667 138.666667 589.866667 170.666667L589.866667 170.666667zM589.866667 170.666667" />
  </symbol>

  <symbol id="icon-whatsapp" viewBox="0 0 52.916668 14.552083">
    <g transform="translate(81.25 -198.87)">
      <g transform="matrix(.26458 0 0 .26458 -59.753 156.95)">
        <rect x="-81.25" y="158.42" width="200" height="55" rx="3.6108" ry="3.6065" fill="#27d50c" fill-rule="evenodd" stroke-width="0"/>
        <g transform="matrix(.61632 0 0 .61632 -46.994 94.459)">
          <path d="m250.9 155.98c-0.18803 0.94791-0.51188 1.7752-0.96908 2.4857-0.45932 0.71085-1.059 1.2894-1.8009 1.7286-0.74013 0.44274-1.664 0.66499-2.7686 0.66499-1.0739 0-1.9893-0.22225-2.7464-0.66499-0.75847-0.43921-1.3649-1.0178-1.8242-1.7286-0.45508-0.71049-0.78811-1.5378-0.99413-2.4857-0.20496-0.9458-0.30691-1.9103-0.30691-2.8861 0-1.0139 0.0967-1.9921 0.28469-2.9372 0.18909-0.94756 0.51364-1.7836 0.97049-2.5135 0.4572-0.72426 1.058-1.3159 1.7995-1.7727 0.73942-0.45791 1.6634-0.68968 2.7697-0.68968 1.0728 0 1.9794 0.23177 2.7203 0.68968 0.74365 0.45684 1.3497 1.0548 1.8239 1.7978 0.47554 0.7426 0.81456 1.5882 1.0188 2.534 0.20743 0.94791 0.30797 1.9117 0.30797 2.8917 0 0.97578-0.0959 1.9403-0.28504 2.8861m6.3447-7.6962c-0.44239-1.5928-1.1204-2.9908-2.0366-4.191-0.91546-1.1991-2.0652-2.1632-3.4544-2.8882-1.3903-0.72743-3.0487-1.0887-4.9738-1.0887-1.5134 0-2.9034 0.29845-4.1649 0.89852-1.2629 0.60043-2.3047 1.5635-3.1252 2.8896h-0.0924v-3.127h-6.393v33.059h6.7218v-11.603h0.0952c0.82056 1.2008 1.8722 2.1071 3.1489 2.721 1.2774 0.6156 2.6758 0.92534 4.1914 0.92534 1.7974 0 3.3673-0.34996 4.7106-1.0428 1.3395-0.69357 2.4624-1.6263 3.3602-2.7951 0.9017-1.1688 1.5699-2.509 2.0122-4.0245 0.44415-1.5162 0.66357-3.0946 0.66357-4.736 0-1.7364-0.21942-3.4011-0.66357-4.9971m-33.14 7.6962c-0.19121 0.94791-0.51576 1.7752-0.97191 2.4857-0.45755 0.71085-1.058 1.2894-1.802 1.7286-0.73943 0.44274-1.6641 0.66499-2.7679 0.66499-1.0746 0-1.9861-0.22225-2.7439-0.66499-0.75883-0.43921-1.3656-1.0178-1.8239-1.7286-0.4579-0.71049-0.78881-1.5378-0.99448-2.4857-0.20602-0.9458-0.30621-1.9103-0.30621-2.8861 0-1.0139 0.0921-1.9921 0.28117-2.9372 0.19191-0.94756 0.51329-1.7836 0.97261-2.5135 0.45473-0.72426 1.0562-1.3159 1.8002-1.7727 0.74048-0.45791 1.6612-0.68968 2.7679-0.68968 1.0717 0 1.9826 0.23177 2.722 0.68968 0.74154 0.45684 1.3508 1.0548 1.8232 1.7978 0.47237 0.7426 0.81139 1.5882 1.0174 2.534 0.20638 0.94791 0.30622 1.9117 0.30622 2.8917 0 0.97578-0.0921 1.9403-0.28046 2.8861m4.3064-11.887c-0.91405-1.1991-2.0673-2.1632-3.4565-2.8882-1.3896-0.72743-3.0452-1.0887-4.9696-1.0887-1.517 0-2.9048 0.29845-4.166 0.89852-1.2661 0.60043-2.3047 1.5635-3.1246 2.8896h-0.0967v-3.127h-6.3934v33.059h6.7275v-11.603h0.091c0.81985 1.2008 1.8722 2.1071 3.1514 2.721 1.2753 0.6156 2.673 0.92534 4.1885 0.92534 1.8002 0 3.3694-0.34996 4.7103-1.0428 1.3416-0.69357 2.4624-1.6263 3.362-2.7951 0.90065-1.1688 1.5684-2.509 2.0137-4.0245 0.4385-1.5162 0.66216-3.0946 0.66216-4.736 0-1.7364-0.22366-3.4011-0.66216-4.9971-0.44521-1.5928-1.1222-2.9908-2.0376-4.191m-44.219 8.0991 4.403-12.409h0.0938l4.2619 12.409zm0.70909-20.744-12.782 33.814h7.4806l2.6497-7.5304h12.643l2.5545 7.5304h7.7191l-12.64-33.814zm-13.352 23.088c-0.44168-0.77329-1.0259-1.4206-1.7516-1.9431-0.72566-0.51929-1.5561-0.93874-2.4853-1.2559-0.9324-0.31397-1.8867-0.58032-2.866-0.80221-0.94615-0.2219-1.8757-0.42722-2.7912-0.61701-0.91546-0.1905-1.73-0.40323-2.4405-0.63853-0.70943-0.23742-1.2834-0.54328-1.7258-0.92534-0.44345-0.37782-0.66217-0.86642-0.66217-1.4672 0-0.50518 0.12312-0.90734 0.37712-1.2079 0.2533-0.29845 0.56127-0.52811 0.92393-0.68756 0.36371-0.15664 0.76341-0.25859 1.2065-0.30763 0.44167-0.0466 0.85337-0.0688 1.2308-0.0688 1.2002 0 2.2419 0.22825 3.1274 0.6858 0.88124 0.45791 1.372 1.3342 1.4651 2.6278h6.3916c-0.1263-1.5145-0.51224-2.769-1.1599-3.7662-0.64593-0.99307-1.4601-1.7907-2.4377-2.3897-0.97684-0.60007-2.0902-1.0255-3.339-1.2788-1.2467-0.25294-2.5319-0.37782-3.8555-0.37782-1.3279 0-2.6229 0.11853-3.8823 0.35277-1.2651 0.23813-2.401 0.65017-3.4096 1.233-1.0114 0.58385-1.8228 1.3797-2.4398 2.3911-0.6163 1.01-0.92392 2.3061-0.92392 3.8834 0 1.0735 0.22295 1.983 0.66533 2.7242 0.4378 0.74295 1.0248 1.3561 1.748 1.8461 0.72813 0.48931 1.5572 0.88548 2.4878 1.1832 0.93098 0.30304 1.886 0.56162 2.8628 0.78352 2.4014 0.50588 4.2721 1.0093 5.6123 1.5162 1.3416 0.50412 2.0122 1.2615 2.0122 2.273 0 0.59972-0.14076 1.0943-0.42545 1.4898-0.28505 0.39687-0.63924 0.71049-1.065 0.94756-0.42863 0.23777-0.90241 0.41239-1.4206 0.52034-0.52105 0.11148-1.0195 0.16722-1.4926 0.16722-0.66287 0-1.3018-0.0797-1.9156-0.23707-0.61701-0.15804-1.1614-0.40322-1.6344-0.73483-0.47308-0.33091-0.86184-0.75636-1.161-1.2788-0.29775-0.52141-0.45085-1.1423-0.45085-1.8704h-6.3909c0.0646 1.6418 0.43427 3.0081 1.1148 4.0968 0.67557 1.0894 1.543 1.9646 2.6024 2.6289 1.0569 0.66181 2.2655 1.1366 3.6241 1.4217 1.355 0.28328 2.7443 0.42581 4.1624 0.42581 1.3896 0 2.7548-0.13547 4.0975-0.40146 1.3413-0.26917 2.5329-0.73519 3.5747-1.3995 1.0439-0.66181 1.8845-1.5378 2.5336-2.6278 0.64523-1.0908 0.96837-2.4402 0.96837-4.0506 0-1.1384-0.22049-2.0906-0.66216-2.8638m-27.79-21.099h-6.7243v7.3395h-4.07v4.4986h4.07v14.446c0 1.233 0.20743 2.2264 0.6163 2.9834 0.41099 0.75671 0.97049 1.3444 1.6799 1.7537 0.7105 0.41063 1.5318 0.6858 2.4631 0.82797 0.92851 0.14111 1.9191 0.21272 2.9584 0.21272 0.66534 0 1.342-0.0169 2.0376-0.0455 0.69286-0.0324 1.3236-0.0938 1.893-0.1912v-5.2102c-0.31679 0.0642-0.6477 0.1136-0.99589 0.14217-0.34608 0.0321-0.70944 0.049-1.0883 0.049-1.1352 0-1.8937-0.19121-2.2733-0.56974-0.37677-0.37782-0.56656-1.1359-0.56656-2.2736v-12.124h4.9241v-4.4986h-4.9241zm-19.27 22.351c0 0.38206-0.0385 0.88689-0.11854 1.5173-0.0783 0.63324-0.29174 1.2545-0.63852 1.8704-0.34749 0.6156-0.88583 1.1465-1.6097 1.5864-0.72566 0.44344-1.7515 0.66428-3.0787 0.66428-0.53516 0-1.0569-0.0473-1.5618-0.14393-0.50588-0.0931-0.9465-0.26035-1.3254-0.49636-0.37818-0.23671-0.6791-0.56056-0.90029-0.9712-0.21943-0.41028-0.33126-0.91369-0.33126-1.5134 0-0.63112 0.11183-1.1554 0.33126-1.5639 0.22119-0.40851 0.51364-0.7493 0.87736-1.0185 0.36124-0.26811 0.7881-0.48083 1.2774-0.64029 0.48895-0.15734 0.98531-0.28328 1.4919-0.37818 0.53517-0.0928 1.0732-0.17427 1.6083-0.23706 0.53869-0.0617 1.0509-0.14288 1.5392-0.23601 0.49072-0.0946 0.94686-0.21449 1.3741-0.35666 0.42616-0.14217 0.78-0.3369 1.0647-0.5909zm6.7225 4.027v-12.738c0-1.4862-0.32985-2.6769-0.99483-3.5754-0.66146-0.90064-1.5141-1.6023-2.5545-2.1078-1.0432-0.50482-2.196-0.8449-3.4579-1.0181-1.2619-0.17356-2.5093-0.25999-3.7394-0.25999-1.3564 0-2.7072 0.13299-4.0467 0.40216-1.3448 0.26811-2.5495 0.71896-3.6234 1.349-1.0735 0.63147-1.9597 1.4693-2.6501 2.51-0.69674 1.0418-1.0908 2.3523-1.185 3.9314h6.7222c0.12629-1.3268 0.57009-2.2747 1.3279-2.8423 0.75706-0.56867 1.7974-0.85125 3.1246-0.85125 0.59866 0 1.1582 0.0395 1.6803 0.11783 0.51964 0.0797 0.9779 0.2353 1.373 0.47343 0.39511 0.23671 0.71049 0.56726 0.94615 0.99483 0.23671 0.4258 0.35525 1.0033 0.35525 1.7276 0.0314 0.69674-0.17463 1.2224-0.61454 1.5861-0.44344 0.36513-1.0421 0.64206-1.7999 0.82903-0.75777 0.19121-1.626 0.33373-2.6049 0.42545-0.97896 0.0967-1.9724 0.22542-2.9813 0.381-1.0111 0.1584-2.0137 0.37112-3.0057 0.63959-0.99412 0.2667-1.8806 0.67133-2.6529 1.2058-0.77399 0.5394-1.4048 1.2566-1.8955 2.1569-0.48824 0.90029-0.73237 2.0458-0.73237 3.4332 0 1.2626 0.21273 2.3516 0.63888 3.2664 0.42581 0.91828 1.0174 1.6729 1.7759 2.2736 0.75812 0.60007 1.6411 1.0428 2.6511 1.3278 1.0086 0.28328 2.0983 0.42581 3.2674 0.42581 1.5148 0 2.999-0.2219 4.4485-0.66181 1.4527-0.44521 2.7167-1.216 3.7899-2.3227 0.0314 0.41028 0.0864 0.81421 0.16439 1.2079 0.079 0.39299 0.18239 0.78211 0.30868 1.1596h6.8185c-0.31538-0.50236-0.53798-1.2608-0.66287-2.273-0.12806-1.0096-0.19085-2.0655-0.19085-3.1736m-27.697-16.932c-0.66181-0.86854-1.5699-1.5462-2.7203-2.0369-1.1536-0.48683-2.6292-0.7313-4.4274-0.7313-1.2629 0-2.5566 0.32244-3.8837 0.97084-1.325 0.64558-2.4144 1.6806-3.266 3.1023h-0.14217v-12.741h-6.7232v33.814h6.7232v-12.834c0-2.4938 0.40993-4.2845 1.2312-5.3756 0.81986-1.088 2.1456-1.6334 3.9772-1.6334 1.609 0 2.7298 0.49707 3.3613 1.493 0.63147 0.99342 0.94686 2.5019 0.94686 4.5216v13.829h6.7236v-15.06c0-1.5145-0.13547-2.8952-0.40287-4.1448-0.26847-1.245-0.73413-2.3036-1.3977-3.1732m-35.508 11.865h-0.09349l-5.776-23.301h-6.96l-5.8716 23.017h-0.09419l-5.3502-23.017h-7.4323l8.9479 33.814h7.5286l5.6328-23.017h0.0949l5.7288 23.017h7.3861l9.0907-33.814h-7.2909z" fill="#fff"/>
          <path d="m-25.319 172.29 1.0534 0.62442c4.4263 2.6268 9.501 4.016 14.676 4.0188h0.011289c15.893 0 28.828-12.932 28.834-28.826 0.0025-7.7029-2.9937-14.945-8.4377-20.394-5.4444-5.448-12.683-8.4504-20.386-8.4536-15.905 0-28.84 12.93-28.846 28.824-0.0021 5.4465 1.5215 10.751 4.4083 15.34l0.68615 1.0908-2.9136 10.637zm-19.243 11.101 4.9216-17.971c-3.0357-5.2596-4.6327-11.226-4.6302-17.338 0.0074-19.122 15.569-34.679 34.693-34.679 9.2798 4e-3 17.99 3.6156 24.54 10.171 6.5493 6.5553 10.155 15.269 10.152 24.536-0.0081 19.121-15.573 34.681-34.692 34.681-0.00141 0 7.056e-4 0 0 0h-0.014817c-5.806-2e-3 -11.511-1.4584-16.578-4.222z" fill="#fff"/>
          <path d="m-43.075 148.1c-0.0021 5.8999 1.5395 11.66 4.4708 16.738l-4.7516 17.349 17.754-4.6553c4.8916 2.6656 10.399 4.0728 16.004 4.0746h0.014464c18.458 0 33.482-15.02 33.49-33.48 0.0035-8.9461-3.477-17.357-9.8005-23.686-6.3225-6.3281-14.731-9.815-23.691-9.8192-18.459 0-33.483 15.018-33.491 33.479m33.492 33.506h3.528e-4 -3.528e-4c-3.527e-4 0-7.055e-4 0 0 0" fill="url(#linearGradient2628)"/>
          <path d="m-44.271 148.09c-0.0021 6.1119 1.5949 12.079 4.6306 17.338l-4.922 17.97 18.391-4.8221c5.0673 2.7633 10.772 4.2196 16.578 4.222h0.014817c19.119 0 34.684-15.56 34.692-34.681 0.0032-9.2675-3.6026-17.981-10.152-24.536-6.5504-6.555-15.26-10.167-24.54-10.171-19.123 0-34.685 15.557-34.693 34.679m10.952 16.433-0.68651-1.0904c-2.8868-4.5896-4.4104-9.894-4.4083-15.34 0.0063-15.893 12.941-28.824 28.846-28.824 7.7022 3e-3 14.941 3.0057 20.386 8.4536 5.4444 5.4483 8.4402 12.691 8.4381 20.393-0.007055 15.894-12.942 28.826-28.835 28.826h-0.011289c-5.1749-3e-3 -10.25-1.3921-14.676-4.0185l-1.0534-0.62442-10.914 2.8614zm23.741 18.276h3.527e-4 -3.527e-4c-3.528e-4 0-7.056e-4 0 0 0" fill="url(#linearGradient2630)"/>
          <path d="m-18.249 133.59c-0.64946-1.4436-1.3328-1.4725-1.9505-1.4979-0.50553-0.0215-1.0837-0.0201-1.6612-0.0201-0.5782 0-1.5173 0.21696-2.3114 1.0844-0.79481 0.86748-3.0342 2.9644-3.0342 7.2291 0 4.2651 3.1066 8.3862 3.5394 8.9651 0.43356 0.57785 5.9969 9.6097 14.807 13.084 7.3226 2.8875 8.8127 2.3132 10.402 2.1685 1.5893-0.14429 5.1287-2.0962 5.8508-4.1204 0.72249-2.0239 0.72249-3.7588 0.50588-4.1211-0.21661-0.36125-0.79481-0.57821-1.6616-1.0114-0.86713-0.43356-5.1287-2.5308-5.9231-2.8201-0.79481-0.28893-1.3727-0.43322-1.9509 0.43462-0.57785 0.86677-2.238 2.8187-2.7439 3.3969-0.50553 0.57926-1.0114 0.65158-1.8782 0.21801-0.86713-0.43497-3.659-1.3494-6.9709-4.3021-2.577-2.2976-4.3166-5.135-4.8225-6.0029-0.50553-0.86677-0.05397-1.3363 0.38065-1.7685 0.38947-0.38841 0.86713-1.0121 1.3007-1.518 0.4325-0.50623 0.57679-0.86748 0.86572-1.4457 0.28928-0.57856 0.14464-1.0848-0.07197-1.5184-0.21696-0.43356-1.9015-4.7202-2.6723-6.4343" fill="#fff" fill-rule="evenodd"/>
        </g>
      </g>
    </g>
  </symbol>

  <symbol id="icon-viber" viewBox="0 0 300 150.80698">
    <g
      transform="translate(-591.85218,18.997123)"
      id="layer1">
    <g
       transform="matrix(3.8492895,0,0,-3.8492895,644.54615,85.156239)"
       id="g134908">
      <path
         id="path134910"
         style="fill:#7c529e;fill-opacity:1;fill-rule:nonzero;stroke:none"
         d="m 0,0 c 0,0 -2.459,0.297 -4.156,0.783 -1.633,0.438 -6.2,1.593 -6.992,7.377 -0.202,1.411 -0.261,2.687 -0.277,3.825 -0.053,3.737 0.689,6.049 1.985,7.622 0.073,0.122 1.117,1.476 3.671,2.483 2.048,1.012 11.212,1.815 18.783,2.204 4.991,0.256 11.149,0.309 17.792,0.168 5.291,-0.112 10.885,-0.308 16.473,-0.895 9.072,-1.018 10.736,-2.452 12.079,-4.12 0.738,-1.054 1.147,-2.407 1.532,-4.635 0.201,-1.817 0.148,-3.634 -0.087,-5.495 -0.696,-5.74 -2.095,-8.648 -15.911,-9.754 -1.189,-0.081 -2.487,-0.228 -3.875,-0.262 0,0 -5.752,-0.318 -12.619,-0.42 -4.979,-0.074 -10.553,0.013 -14.935,0.173 -1.857,0.069 -4.116,0.229 -4.116,0.229 0,0 -4.496,-5.825 -5.412,-7.077 C 3.02,-9.043 2.186,-9.987 0.974,-9.609 0.25,-9.383 0.041,-8.64 0,-7.574 -0.035,-6.671 0,0 0,0" />
    </g>
    <g
       transform="matrix(3.8492895,0,0,-3.8492895,672.48004,95.777198)"
       id="g134912">
      <path
         id="path134914"
         style="fill:#7c529e;fill-opacity:1;fill-rule:nonzero;stroke:none"
         d="m 0,0 c 1.408,-0.085 3.486,-0.183 5.431,-0.265 4.59,-0.192 10.428,-0.299 15.643,-0.217 7.328,-0.038 16.032,0.69 17.278,0.783 14.879,0.533 17.155,5.68 17.197,13.913 0.027,5.271 -0.797,7.788 -2.028,9.35 -1.405,1.954 -3.147,3.634 -12.649,4.834 -5.853,0.693 -11.712,0.928 -17.254,1.064 -6.958,0.17 -13.409,0.114 -18.638,-0.181 -7.929,-0.449 -17.529,-1.38 -19.676,-2.562 -2.675,-1.177 -3.77,-2.761 -3.847,-2.904 -1.358,-1.839 -2.194,-4.567 -2.141,-8.942 0.016,-1.332 0.042,-2.84 0.252,-4.492 0.825,-6.771 5.741,-8.275 7.452,-8.79 C -8.837,0.307 -1.391,0.084 0,0" />
    </g>
    <g
       transform="matrix(3.8492895,0,0,-3.8492895,700.51368,63.403134)"
       id="g134916">
      <path
         id="path134918"
         style="fill:#ffffff;fill-opacity:1;fill-rule:nonzero;stroke:none"
         d="m 0,0 -4.152,10.345 c -0.056,0.13 -0.099,0.271 -0.13,0.423 -0.032,0.151 -0.047,0.305 -0.047,0.46 0,0.439 0.153,0.804 0.458,1.095 0.305,0.291 0.689,0.437 1.15,0.437 0.337,0 0.613,-0.101 0.828,-0.302 0.215,-0.201 0.412,-0.543 0.593,-1.026 L 1.517,3.823 4.236,11.32 c 0.181,0.539 0.386,0.914 0.617,1.124 0.23,0.21 0.536,0.316 0.916,0.316 0.468,0 0.835,-0.127 1.104,-0.381 0.267,-0.254 0.402,-0.6 0.402,-1.04 0,-0.173 -0.018,-0.352 -0.052,-0.534 C 7.189,10.622 7.137,10.444 7.069,10.271 L 3.048,0.121 C 2.867,-0.337 2.655,-0.666 2.412,-0.864 2.169,-1.062 1.858,-1.161 1.477,-1.161 c -0.355,0 -0.646,0.09 -0.874,0.27 C 0.375,-0.712 0.174,-0.415 0,0" />
    </g>
    <g
       transform="matrix(3.8492895,0,0,-3.8492895,742.61717,59.920296)"
       id="g134920">
      <path
         id="path134922"
         style="fill:#ffffff;fill-opacity:1;fill-rule:nonzero;stroke:none"
         d="m 0,0 c 0,-0.703 -0.115,-1.224 -0.345,-1.561 -0.229,-0.337 -0.583,-0.505 -1.06,-0.505 -0.483,0 -0.843,0.17 -1.078,0.51 -0.236,0.34 -0.354,0.858 -0.354,1.556 l 0,5.706 c 0,0.698 0.117,1.215 0.35,1.552 0.232,0.337 0.593,0.506 1.082,0.506 0.477,0 0.831,-0.169 1.06,-0.506 C -0.115,6.921 0,6.404 0,5.706 L 0,0 Z" />
    </g>
    <g
       transform="matrix(3.8492895,0,0,-3.8492895,759.15837,30.342359)"
       id="g134924">
      <path
         id="path134926"
         style="fill:#ffffff;fill-opacity:1;fill-rule:nonzero;stroke:none"
         d="m 0,0 c 0.33,0.287 0.693,0.502 1.089,0.645 0.396,0.143 0.825,0.215 1.286,0.215 1.303,0 2.401,-0.516 3.296,-1.547 0.894,-1.032 1.342,-2.321 1.342,-3.867 0,-1.458 -0.458,-2.703 -1.375,-3.735 -0.916,-1.032 -2.004,-1.548 -3.263,-1.548 -0.499,0 -0.957,0.088 -1.374,0.262 -0.418,0.175 -0.777,0.43 -1.076,0.767 -0.187,-0.324 -0.4,-0.567 -0.64,-0.729 -0.24,-0.162 -0.507,-0.244 -0.8,-0.244 -0.511,0 -0.89,0.181 -1.136,0.543 -0.246,0.361 -0.369,0.913 -0.369,1.655 l 0,9.555 c 0,0.748 0.123,1.303 0.369,1.664 0.246,0.362 0.625,0.542 1.136,0.542 0.511,0 0.892,-0.18 1.141,-0.542 C -0.125,3.275 0,2.72 0,1.972 L 0,0 Z m -0.23,-4.499 c 0,-0.827 0.201,-1.492 0.605,-1.993 0.403,-0.502 0.923,-0.753 1.561,-0.753 0.63,0 1.149,0.255 1.555,0.763 0.407,0.508 0.611,1.169 0.611,1.983 0,0.827 -0.202,1.498 -0.606,2.013 -0.403,0.515 -0.923,0.773 -1.56,0.773 -0.638,0 -1.158,-0.256 -1.561,-0.768 -0.404,-0.512 -0.605,-1.184 -0.605,-2.018" />
    </g>
    <g
       transform="matrix(3.8492895,0,0,-3.8492895,799.20521,50.839053)"
       id="g134928">
      <path
         id="path134930"
         style="fill:#ffffff;fill-opacity:1;fill-rule:nonzero;stroke:none"
         d="m 0,0 c 0.069,-0.565 0.474,-1.007 0.873,-1.324 0.399,-0.317 0.926,-0.475 1.58,-0.475 0.568,0 1.199,0.163 1.894,0.489 0.695,0.327 1.123,0.49 1.286,0.49 0.355,0 0.645,-0.109 0.869,-0.327 0.225,-0.217 0.337,-0.497 0.337,-0.838 0,-0.647 -0.452,-1.23 -1.356,-1.748 -0.904,-0.519 -1.967,-0.779 -3.188,-0.779 -1.49,0 -2.734,0.507 -3.731,1.52 -0.998,1.013 -1.496,2.284 -1.496,3.812 0,1.535 0.484,2.815 1.454,3.841 0.969,1.025 2.177,1.538 3.623,1.538 1.396,0 2.565,-0.482 3.506,-1.445 C 6.592,3.791 7.063,2.613 7.063,1.221 7.063,0.767 6.96,0.451 6.755,0.27 6.549,0.09 6.153,0 5.567,0 L 0,0 Z m -0.121,1.763 4.437,0 C 4.275,2.323 4.049,2.906 3.637,3.282 3.226,3.657 2.736,3.846 2.167,3.846 1.605,3.846 1.065,3.668 0.661,3.313 0.256,2.957 -0.004,2.364 -0.121,1.763" />
    </g>
    <g
       transform="matrix(3.8492895,0,0,-3.8492895,829.62384,59.362919)"
       id="g134932">
      <path
         id="path134934"
         style="fill:#ffffff;fill-opacity:1;fill-rule:nonzero;stroke:none"
         d="M 0,0 0,6.068 C 0,6.81 0.123,7.36 0.369,7.719 0.616,8.077 0.994,8.256 1.505,8.256 1.811,8.256 2.082,8.177 2.319,8.018 2.556,7.859 2.765,7.617 2.945,7.293 3.257,7.63 3.587,7.884 3.937,8.055 4.286,8.227 4.638,8.312 4.993,8.312 5.411,8.312 5.771,8.164 6.073,7.868 6.375,7.572 6.527,7.221 6.527,6.816 6.527,6.212 5.972,5.707 4.862,5.302 4.463,5.158 4.164,5.04 3.965,4.946 3.584,4.765 3.332,4.564 3.207,4.343 3.082,4.122 3.02,3.721 3.02,3.142 L 3.02,0 c 0,-0.742 -0.125,-1.294 -0.374,-1.655 -0.249,-0.362 -0.629,-0.542 -1.141,-0.542 -0.511,0 -0.889,0.18 -1.136,0.542 C 0.123,-1.294 0,-0.742 0,0" />
    </g>
    <g
       transform="matrix(3.8492895,0,0,-3.8492895,731.34301,20.324968)"
       id="g134936">
      <path
         id="path134938"
         style="fill:#ffffff;fill-opacity:1;fill-rule:nonzero;stroke:none"
         d="M 0,0 C 0,0.433 0.156,0.803 0.468,1.112 0.779,1.421 1.154,1.576 1.59,1.576 2.021,1.576 2.39,1.421 2.696,1.112 3.002,0.803 3.155,0.433 3.155,0 3.155,-0.438 3.004,-0.809 2.7,-1.112 2.397,-1.416 2.027,-1.568 1.59,-1.568 1.142,-1.568 0.765,-1.416 0.459,-1.112 0.153,-0.809 0,-0.438 0,0" />
    </g>
    <g
       transform="matrix(3.8492895,0,0,-3.8492895,662.84068,38.330401)"
       id="g134940">
      <path
         id="path134942"
         style="fill:#ffffff;fill-opacity:1;fill-rule:nonzero;stroke:none"
         d="m 0,0 c -0.174,0 -0.32,0.137 -0.329,0.313 -0.055,1.118 -0.582,1.666 -1.658,1.724 -0.182,0.01 -0.321,0.165 -0.311,0.347 0.01,0.181 0.164,0.322 0.346,0.311 C -0.532,2.619 0.257,1.806 0.329,0.346 0.338,0.164 0.198,0.009 0.017,0 0.011,0 0.006,0 0,0" />
    </g>
    <g
       transform="matrix(3.8492895,0,0,-3.8492895,669.3502,40.510639)"
       id="g134944">
      <path
         id="path134946"
         style="fill:#ffffff;fill-opacity:1;fill-rule:nonzero;stroke:none"
         d="M 0,0 C -0.003,0 -0.005,0 -0.008,0 -0.19,0.004 -0.334,0.155 -0.33,0.337 -0.304,1.463 -0.626,2.375 -1.313,3.125 -1.997,3.873 -2.936,4.281 -4.185,4.373 -4.366,4.386 -4.503,4.544 -4.489,4.725 -4.476,4.907 -4.318,5.043 -4.137,5.03 -2.732,4.927 -1.619,4.436 -0.827,3.57 -0.031,2.701 0.358,1.609 0.329,0.322 0.325,0.143 0.178,0 0,0" />
    </g>
    <g
       transform="matrix(3.8492895,0,0,-3.8492895,676.01446,43.118918)"
       id="g134948">
      <path
         id="path134950"
         style="fill:#ffffff;fill-opacity:1;fill-rule:nonzero;stroke:none"
         d="m 0,0 c -0.181,0 -0.328,0.146 -0.329,0.327 -0.016,2.015 -0.596,3.553 -1.774,4.704 -1.164,1.133 -2.635,1.715 -4.372,1.727 -0.182,0.002 -0.328,0.15 -0.327,0.332 10e-4,0.181 0.149,0.327 0.329,0.327 l 0.003,0 C -4.557,7.404 -2.933,6.759 -1.643,5.502 -0.351,4.241 0.313,2.501 0.329,0.332 0.331,0.15 0.185,0.001 0.003,0 L 0,0 Z" />
    </g>
    <g
       transform="matrix(3.8492895,0,0,-3.8492895,655.51163,54.0509)"
       id="g134952">
      <path
         id="path134954"
         style="fill:#ffffff;fill-opacity:1;fill-rule:nonzero;stroke:none"
         d="M 0,0 C 0,0 0.463,-0.041 0.713,0.268 L 1.199,0.88 C 1.433,1.183 2,1.377 2.554,1.068 2.863,0.893 3.416,0.551 3.763,0.296 4.132,0.025 4.885,-0.602 4.887,-0.604 5.246,-0.907 5.329,-1.352 5.085,-1.821 5.085,-1.823 5.082,-1.828 5.082,-1.831 4.831,-2.274 4.495,-2.69 4.07,-3.077 4.066,-3.079 4.066,-3.082 4.061,-3.084 3.713,-3.375 3.37,-3.54 3.033,-3.581 2.993,-3.589 2.944,-3.592 2.883,-3.59 2.737,-3.591 2.591,-3.57 2.447,-3.523 l -0.011,0.016 c -0.519,0.146 -1.384,0.512 -2.826,1.307 -0.937,0.517 -1.716,1.044 -2.374,1.569 -0.347,0.274 -0.704,0.585 -1.067,0.946 -0.012,0.012 -0.024,0.024 -0.036,0.036 -0.012,0.012 -0.024,0.024 -0.036,0.036 l 0,0 0,0 C -3.916,0.399 -3.927,0.411 -3.939,0.424 -3.951,0.435 -3.963,0.447 -3.975,0.459 -4.336,0.822 -4.648,1.18 -4.922,1.527 -5.447,2.185 -5.974,2.964 -6.49,3.901 -7.285,5.342 -7.651,6.208 -7.797,6.726 l -0.016,0.011 c -0.047,0.144 -0.069,0.29 -0.067,0.437 -0.003,0.061 0.001,0.11 0.009,0.15 0.04,0.336 0.205,0.679 0.496,1.028 0.003,0.004 0.005,0.004 0.007,0.009 0.388,0.425 0.803,0.761 1.247,1.012 0.002,0 0.007,0.002 0.009,0.002 0.47,0.244 0.915,0.162 1.217,-0.198 0.003,-0.002 0.63,-0.755 0.9,-1.123 0.256,-0.347 0.598,-0.9 0.772,-1.209 C -2.914,6.29 -3.107,5.723 -3.411,5.49 L -4.023,5.003 C -4.331,4.754 -4.291,4.291 -4.291,4.291 -4.291,4.291 -3.386,0.864 0,0" />
    </g>
   </g>
  </symbol>

  <symbol id="icon-mail" viewBox="0 0 64 64">
    <g>
      <path d="M63.125,9.977c-0.902-1.321-2.419-2.194-4.131-2.194H5.006c-1.676,0-3.158,0.842-4.067,2.117l31.16,25.982L63.125,9.977z"/>
      <path d="M0.006,14.328v36.889c0,2.75,2.25,5,5,5h53.988c2.75,0,5-2.25,5-5V14.461L32.099,41.09L0.006,14.328z"/>
    </g>
  </symbol>


  <symbol id="icon-instagram" viewBox="0 0 21 21">
    <path d="M18,0H3C1.35,0,0,1.35,0,3v15c0,1.65,1.35,3,3,3h15c1.65,0,3-1.35,3-3V3C21,1.35,19.65,0,18,0z M10.5,7
	  c1.93,0,3.5,1.57,3.5,3.5S12.43,14,10.5,14S7,12.43,7,10.5S8.57,7,10.5,7z M18,18H3V9h1.181C4.067,9.482,4,9.983,4,10.5
	  c0,3.59,2.91,6.5,6.5,6.5s6.5-2.91,6.5-6.5c0-0.517-0.066-1.018-0.181-1.5H18V18z M18,7h-4V3h4V7z"/>
  </symbol>

  <symbol id="icon-vk" viewBox="0 0 26 15">
    <path d="M16.138,11.51c0.956-0.309,2.18,2.04,3.483,2.939c0.978,0.681,1.727,0.534,1.727,0.534l3.473-0.05
	  c0,0,1.815-0.112,0.957-1.554c-0.071-0.12-0.503-1.069-2.585-3.022c-2.177-2.043-1.882-1.712,0.739-5.244
	  c1.597-2.153,2.236-3.468,2.036-4.028c-0.192-0.539-1.365-0.399-1.365-0.399L20.69,0.713c-0.381,0.001-0.704,0.119-0.851,0.515
	  c-0.003,0.004-0.621,1.666-1.445,3.079c-1.741,2.989-2.436,3.148-2.724,2.961c-0.661-0.433-0.494-1.737-0.494-2.664
	  c0-2.897,0.432-4.105-0.846-4.417c-0.427-0.104-0.739-0.172-1.828-0.182c-1.392-0.021-2.574,0-3.244,0.329
    c-0.445,0.223-0.786,0.712-0.579,0.74c0.26,0.035,0.843,0.16,1.155,0.586c0.401,0.552,0.389,1.789,0.389,1.789
	  s0.229,3.411-0.54,3.834c-0.528,0.29-1.25-0.302-2.803-3.016C6.087,2.879,5.488,1.345,5.488,1.345S5.372,1.06,5.162,0.904
	  C4.912,0.719,4.562,0.66,4.562,0.66L0.848,0.684c0,0-0.558,0.016-0.763,0.262C-0.097,1.164,0.07,1.614,0.07,1.614
	  s2.909,6.881,6.203,10.347c3.02,3.182,6.452,2.971,6.452,2.971h1.555c0,0,0.469-0.054,0.709-0.312
	  c0.224-0.24,0.214-0.691,0.214-0.691S15.172,11.82,16.138,11.51z"/>
  </symbol>

  <symbol id="icon-close" viewBox="0 0 50 50">
    <path d="M37.304 11.282l1.414 1.414-26.022 26.02-1.414-1.413z"/>
    <path d="M12.696 11.282l26.022 26.02-1.414 1.415-26.022-26.02z"/>
  </symbol>

</svg>
